<svg width="16" height="16" xmlns="http://www.w3.org/2000/svg">
   <path fill="#fff" d="m0.71048,1.54695c-0.2309,-0.2309 -0.2309,-0.60538 0,-0.83641c0.2309,-0.23103 0.60538,-0.23103 0.83641,0l6.45305,6.45305l6.45305,-6.45305c0.2309,-0.23103 0.60538,-0.23103 0.83653,0c0.2309,0.2309 0.2309,0.6055 0,0.83641l-6.4533,6.45293l6.45318,6.45318c0.2309,0.2309 0.2309,0.60538 0,0.83641c-0.23103,0.23103 -0.6055,0.23103 -0.83653,0l-6.45305,-6.45305l-6.45293,6.45305c-0.2309,0.23103 -0.60538,0.23103 -0.83641,0c-0.2309,-0.2309 -0.2309,-0.60538 0,-0.83641l6.45305,-6.45318l-6.45305,-6.45293l0,0z"/>
</svg>